#N canvas 202 171 1112 834 10;
#X floatatom 410 77 5 0 0 0 - - -, f 5;
#X obj 1200 330 import mrpeach;
#X obj 410 57 routeOSC /SUB1;
#X obj 340 82 print OSC;
#X obj 410 2 udpreceive 3000;
#X obj 1250 587 random 100;
#X obj 1250 540 bng 15 250 50 0 empty empty empty 17 7 0 10 #fcfcfc
#000000 #000000;
#X floatatom 1250 645 5 0 0 0 - - -, f 5;
#X floatatom 1688 377 5 0 0 0 - - -, f 5;
#X obj 1688 350 mtof;
#X obj 1430 620 freeverb~;
#X obj 1680 420 osc~, f 6;
#X text 1634 379 Freq(Hz);
#X obj 1040 190 noise~;
#X obj 1250 610 / 100;
#X floatatom 1480 455 5 0 0 0 - - -, f 5;
#X obj 1480 435 -;
#X obj 1630 930 dac~;
#X msg 1479 410 1;
#X obj 1478 366 bng 15 250 50 0 empty empty empty 17 7 0 10 #fcfcfc
#000000 #000000;
#X obj 1480 385 metro 100;
#X obj 1100 190 rojo~;
#X obj 220 -40 noise~;
#X obj 1480 670 *~;
#X text 1410 340 this part updates the stream input;
#X obj 410 32 unpackOSC;
#X obj 1250 560 metro 1000;
#X msg 1500 570 \; pd dsp 1 \;;
#X msg 1500 610 \; pd dsp 0 \;;
#X text 360 -28 Process input from MATLAB;
#X text -10 50 50 - 250 Hz BPF noise to generate brown noise;
#X obj 410 720 output~;
#X text 1170 510 generate random input for testing;
#X obj 1190 665 *~;
#X obj 1110 440 hip~ 50;
#X obj 1110 460 hip~ 50;
#X obj 1110 480 hip~ 50;
#X obj 1110 500 hip~ 50;
#X obj 1110 520 lop~ 250;
#X obj 1110 540 lop~ 250;
#X obj 1110 560 lop~ 250;
#X obj 1110 580 lop~ 250;
#X obj 1110 420 noise~;
#X obj 1320 200 random 100;
#X obj 1280 180 bng 26 250 50 0 empty empty empty 17 7 0 10 #fcfcfc
#000000 #000000;
#X floatatom 1320 230 5 0 0 0 - - -, f 5;
#X floatatom 1300 300 5 0 0 0 - - -, f 5;
#X obj 1300 260 -;
#X obj 1290 230 1;
#X obj 1130 230 dac~;
#X obj -30 -80 bng 26 250 50 0 empty empty empty 17 7 0 10 #fcfcfc
#000000 #000000;
#X floatatom 1160 120 5 0 0 0 - - -, f 5;
#X obj 1160 80 1;
#X obj 1160 40 bng 15 250 50 0 empty empty empty 17 7 0 10 #fcfcfc
#000000 #000000;
#X obj 500 502 writesf~;
#X msg 860 670 stop;
#X obj 750 240 bng 19 250 50 0 empty empty empty 17 7 0 10 #fcfcfc
#000000 #000000;
#X obj 910 580 bng 19 250 50 0 empty empty empty 17 7 0 10 #fcfcfc
#000000 #000000;
#X floatatom 990 650 5 0 0 0 - - -, f 5;
#X text 580 140 activate audio recording;
#X msg 640 382 open sonification.wav \, start;
#X floatatom 880 310 5 0 0 0 - - -, f 5;
#X obj 910 550 delay 60000;
#X obj 410 110 * 10;
#X text 530 0 amplitude control;
#X obj 750 200 once;
#X text 710 20 to record \, first press here;
#X obj 850 90 bng 19 250 50 0 empty empty empty 17 7 0 10 #fcfcfc #000000
#000000;
#X obj 540 40 hsl 128 15 0 127 0 0 empty empty empty -2 -8 0 10 #fcfcfc
#000000 #000000 0 1;
#X floatatom 540 70 5 0 0 0 - - -, f 5;
#X text 600 470 activate audio recording;
#X obj 270 40 hip~ 50;
#X obj 270 60 hip~ 50;
#X obj 270 80 hip~ 50;
#X obj 270 100 hip~ 50;
#X obj 270 120 lop~ 250;
#X obj 270 140 lop~ 250;
#X obj 270 160 lop~ 250;
#X obj 270 180 lop~ 250;
#X obj 340 360 dac~;
#X obj 270 -10 rojo~;
#X obj 350 270 *~;
#X msg 820 270 1;
#X obj 840 310 +;
#X obj 950 650 +;
#X msg 930 610 1;
#X obj 520 150 sel 0;
#X text 990 550 one minute;
#X msg 500 320 stop;
#X obj 521 261 bng 19 250 50 0 empty empty empty 17 7 0 10 #fcfcfc
#000000 #000000;
#X floatatom 601 331 5 0 0 0 - - -, f 5;
#X obj 561 331 +;
#X msg 541 291 1;
#X connect 0 0 63 0;
#X connect 2 0 0 0;
#X connect 4 0 25 0;
#X connect 5 0 14 0;
#X connect 6 0 26 0;
#X connect 7 0 33 1;
#X connect 9 0 8 0;
#X connect 14 0 7 0;
#X connect 16 0 15 0;
#X connect 18 0 16 0;
#X connect 19 0 20 0;
#X connect 20 0 18 0;
#X connect 25 0 2 0;
#X connect 25 0 3 0;
#X connect 26 0 5 0;
#X connect 34 0 35 0;
#X connect 35 0 36 0;
#X connect 36 0 37 0;
#X connect 37 0 38 0;
#X connect 38 0 39 0;
#X connect 39 0 40 0;
#X connect 40 0 41 0;
#X connect 41 0 33 0;
#X connect 42 0 34 0;
#X connect 43 0 45 0;
#X connect 44 0 43 0;
#X connect 44 0 48 0;
#X connect 45 0 47 1;
#X connect 47 0 46 0;
#X connect 48 0 47 0;
#X connect 52 0 51 0;
#X connect 53 0 52 0;
#X connect 56 0 60 0;
#X connect 56 0 82 0;
#X connect 57 0 55 0;
#X connect 57 0 85 0;
#X connect 58 0 84 1;
#X connect 60 0 54 0;
#X connect 61 0 83 1;
#X connect 62 0 57 0;
#X connect 63 0 81 1;
#X connect 65 0 56 0;
#X connect 67 0 65 1;
#X connect 68 0 69 0;
#X connect 71 0 72 0;
#X connect 72 0 73 0;
#X connect 73 0 74 0;
#X connect 74 0 75 0;
#X connect 75 0 76 0;
#X connect 76 0 77 0;
#X connect 77 0 78 0;
#X connect 78 0 81 0;
#X connect 80 0 71 0;
#X connect 81 0 79 0;
#X connect 81 0 79 1;
#X connect 82 0 83 0;
#X connect 83 0 61 0;
#X connect 84 0 58 0;
#X connect 85 0 84 0;
#X connect 86 0 89 0;
#X connect 86 1 65 0;
#X connect 88 0 54 0;
#X connect 89 0 88 0;
#X connect 89 0 92 0;
#X connect 90 0 91 1;
#X connect 91 0 90 0;
#X connect 92 0 91 0;
